<?xml version="1.0" encoding="utf-8"?>
<!-- Generator: Adobe Illustrator 18.0.0, SVG Export Plug-In . SVG Version: 6.00 Build 0)  -->
<!DOCTYPE svg PUBLIC "-//W3C//DTD SVG 1.1//EN" "http://www.w3.org/Graphics/SVG/1.1/DTD/svg11.dtd">
<svg version="1.1" id="Layer_1" xmlns="http://www.w3.org/2000/svg" xmlns:xlink="http://www.w3.org/1999/xlink" x="0px" y="0px"
	 viewBox="0 0 50 50" enable-background="new 0 0 50 50" xml:space="preserve">
<circle fill="#FFFFFF" cx="25" cy="25" r="25"/>
<path fill="#00BCDA" d="M15,33c0-5.3,0-10.6,0-15.9c0,0,0-0.1,0-0.1c0.2-1,0.8-1.6,1.8-1.8c0.1,0,0.2,0,0.2-0.1c5.3,0,10.6,0,15.9,0
	c0,0,0.1,0,0.1,0c1,0.2,1.6,0.8,1.9,1.8c0,0.1,0,0.2,0.1,0.2c0,5.3,0,10.6,0,15.9c0,0,0,0.1,0,0.1c-0.2,0.9-0.9,1.7-1.8,1.9
	C33.1,35,33,35,33,35c-5.3,0-10.6,0-15.9,0c0,0-0.1,0-0.1,0c-0.9-0.2-1.7-0.8-1.9-1.8C15,33.1,15,33,15,33z M17.3,23.5
	c0,0.1,0,0.1,0,0.2c0,2.7,0,5.4,0,8.2c0,0.5,0.3,0.9,0.9,0.9c4.6,0,9.1,0,13.7,0c0.5,0,0.9-0.3,0.9-0.9c0-2.7,0-5.4,0-8.1
	c0-0.1,0-0.1,0-0.2c-0.6,0-1.1,0-1.7,0c0.4,1.9,0.1,3.7-1.1,5.3c-1.2,1.6-2.8,2.4-4.8,2.4c-1.6,0-3.1-0.5-4.3-1.7
	c-1.7-1.7-2.2-3.7-1.7-6C18.4,23.5,17.9,23.5,17.3,23.5z M25,28.8c2.1,0,3.9-1.7,3.9-3.8c0-2.1-1.7-3.8-3.8-3.9
	c-2.1,0-3.9,1.7-3.9,3.8C21.1,27.1,22.9,28.8,25,28.8z M32.7,19.2c0-0.4,0-0.7,0-1.1c0-0.5-0.3-0.8-0.8-0.8c-0.7,0-1.5,0-2.2,0
	c-0.5,0-0.8,0.3-0.8,0.8c0,0.8,0,1.5,0,2.3c0,0.5,0.3,0.8,0.8,0.8c0.8,0,1.5,0,2.3,0c0.5,0,0.8-0.3,0.8-0.8
	C32.7,20,32.7,19.6,32.7,19.2z"/>
</svg>
